<svg width="28" height="28" viewBox="0 0 28 28" fill="none" xmlns="http://www.w3.org/2000/svg">
<path d="M25.4451 4.59661C23.9168 8.41161 20.4285 13.3933 17.1035 16.6483C16.6251 13.6383 14.2218 11.2816 11.1885 10.8616C14.4551 7.52494 19.4718 3.98994 23.2985 2.44994C23.9751 2.19327 24.6518 2.39161 25.0718 2.81161C25.5151 3.25494 25.7251 3.91994 25.4451 4.59661Z" fill="#2189FF"/>
<path opacity="0.1" d="M17.1028 16.6478C16.5195 17.2195 15.9361 17.7445 15.3761 18.1878L13.0778 20.0311C12.7861 20.2411 12.4945 20.4161 12.1678 20.5561C12.1678 20.3345 12.1445 20.1128 12.1211 19.8795C11.9928 18.9111 11.5495 17.9895 10.7678 17.2078C9.96279 16.4145 9.00612 15.9595 8.01445 15.8311C7.78112 15.8078 7.53612 15.7961 7.31445 15.8078C7.44279 15.4461 7.64112 15.1078 7.88612 14.8278L9.70612 12.5295C10.1378 11.9811 10.6395 11.4211 11.1878 10.8611C14.2211 11.2811 16.6245 13.6378 17.1028 16.6478Z" fill="#0B2441"/>
<path d="M12.1677 20.5566C12.1677 21.84 11.6777 23.065 10.7444 23.9866C10.0327 24.71 9.07607 25.2 7.9094 25.34L5.05107 25.655C3.48773 25.83 2.14607 24.4883 2.32107 22.9133L2.63607 20.0433C2.91607 17.4883 5.05107 15.855 7.3144 15.8083C7.53607 15.7966 7.78107 15.8083 8.0144 15.8316C9.00607 15.96 9.96273 16.415 10.7677 17.2083C11.5494 17.99 11.9927 18.9116 12.1211 19.88C12.1444 20.1133 12.1677 20.335 12.1677 20.5566Z" fill="#2189FF"/>
</svg>
