<svg width="28" height="28" viewBox="0 0 28 28" fill="none" xmlns="http://www.w3.org/2000/svg">
<path opacity="0.1" d="M24.5 26.5417H3.5C3.02167 26.5417 2.625 26.145 2.625 25.6667C2.625 25.1884 3.02167 24.7917 3.5 24.7917H24.5C24.9783 24.7917 25.375 25.1884 25.375 25.6667C25.375 26.145 24.9783 26.5417 24.5 26.5417Z" fill="#0B2441"/>
<path d="M6.53331 9.77631H4.66667C4.025 9.77631 3.5 10.3013 3.5 10.943V20.9996C3.5 21.6413 4.025 22.1663 4.66667 22.1663H6.53331C7.17497 22.1663 7.69997 21.6413 7.69997 20.9996V10.943C7.69997 10.2896 7.17497 9.77631 6.53331 9.77631Z" fill="#2189FF"/>
<path d="M14.9337 6.05566H13.0671C12.4254 6.05566 11.9004 6.58066 11.9004 7.22233V21.0007C11.9004 21.6423 12.4254 22.1673 13.0671 22.1673H14.9337C15.5754 22.1673 16.1004 21.6423 16.1004 21.0007V7.22233C16.1004 6.58066 15.5754 6.05566 14.9337 6.05566Z" fill="#2189FF"/>
<path d="M23.3333 2.33331H21.4667C20.825 2.33331 20.3 2.85831 20.3 3.49998V21C20.3 21.6416 20.825 22.1666 21.4667 22.1666H23.3333C23.975 22.1666 24.5 21.6416 24.5 21V3.49998C24.5 2.85831 23.975 2.33331 23.3333 2.33331Z" fill="#2189FF"/>
</svg>
