<svg width="28" height="28" viewBox="0 0 28 28" fill="none" xmlns="http://www.w3.org/2000/svg">
<path opacity="0.1" d="M24.5 2.33331V16.45C24.5 18.6667 23.3333 19.8333 21.1167 19.8333H6.88333C4.66666 19.8333 3.5 18.6667 3.5 16.45V2.33331H24.5Z" fill="#0B2441"/>
<path d="M25.6663 3.2085H2.33301C1.85467 3.2085 1.45801 2.81183 1.45801 2.3335C1.45801 1.85516 1.85467 1.4585 2.33301 1.4585H25.6663C26.1447 1.4585 26.5413 1.85516 26.5413 2.3335C26.5413 2.81183 26.1447 3.2085 25.6663 3.2085Z" fill="#2189FF"/>
<path d="M19.4487 26.0633C19.297 26.3666 18.982 26.5416 18.667 26.5416C18.5386 26.5416 18.3987 26.5067 18.282 26.4483L14.0003 24.3133L9.71863 26.4483C9.60196 26.5067 9.46198 26.5416 9.33364 26.5416C9.01864 26.5416 8.70363 26.3666 8.55196 26.0633C8.33029 25.62 8.50533 25.095 8.94866 24.885L13.1253 22.7967V19.8333H14.8753V22.7967L19.052 24.885C19.4953 25.095 19.6703 25.62 19.4487 26.0633Z" fill="#2189FF"/>
<path d="M8.7499 13.7082C8.5049 13.7082 8.24825 13.6033 8.07325 13.3933C7.75825 13.0199 7.81656 12.4716 8.18989 12.1566L11.8649 9.08826C12.2033 8.80826 12.6349 8.69159 13.0432 8.76159C13.4632 8.83159 13.8249 9.08823 14.0466 9.46156L15.2716 11.5032L18.6899 8.6566C19.0632 8.3416 19.6116 8.3999 19.9266 8.77323C20.2416 9.14657 20.1833 9.6949 19.8099 10.0099L16.1349 13.0782C15.7966 13.3582 15.3649 13.4749 14.9566 13.4049C14.5366 13.3349 14.1749 13.0783 13.9532 12.7049L12.7282 10.6633L9.30992 13.5099C9.14658 13.6382 8.94824 13.7082 8.7499 13.7082Z" fill="#2189FF"/>
</svg>
