<svg width="28" height="28" viewBox="0 0 28 28" fill="none" xmlns="http://www.w3.org/2000/svg">
<path d="M22.7501 8.7497L21.0117 10.488L17.5117 6.98803L19.2501 5.2497C19.7401 4.7597 20.3701 4.52637 21.0001 4.52637C21.6301 4.52637 22.2601 4.7597 22.7501 5.2497C23.7184 6.21803 23.7184 7.78137 22.7501 8.7497Z" fill="#2189FF"/>
<path opacity="0.1" d="M21.0122 10.4886L7.58386 23.9169C6.61552 24.8853 5.05219 24.8853 4.08386 23.9169C3.11552 22.9486 3.11552 21.3853 4.08386 20.4169L17.5122 6.9886L21.0122 10.4886Z" fill="#0B2441"/>
<path d="M11.6092 4.08262L12.0876 2.46095C12.1342 2.30929 12.0876 2.14595 11.9826 2.02929C11.8776 1.91262 11.6909 1.86595 11.5392 1.91262L9.91758 2.39095L8.29592 1.91262C8.14425 1.86595 7.98091 1.91262 7.86425 2.01762C7.74758 2.13429 7.71258 2.29762 7.75925 2.44929L8.22592 4.08262L7.74758 5.70429C7.70091 5.85595 7.74758 6.01929 7.85258 6.13595C7.96925 6.25262 8.13258 6.28762 8.28425 6.24095L9.91758 5.77429L11.5392 6.25262C11.5859 6.26429 11.6209 6.27595 11.6676 6.27595C11.7842 6.27595 11.8892 6.22929 11.9826 6.14762C12.0992 6.03095 12.1342 5.86762 12.0876 5.71595L11.6092 4.08262Z" fill="#2189FF"/>
<path d="M6.94226 11.0828L7.42059 9.46112C7.46726 9.30945 7.42059 9.14612 7.31559 9.02945C7.19892 8.91279 7.03559 8.87779 6.88392 8.92446L5.25059 9.39112L3.62892 8.91279C3.47726 8.86612 3.31392 8.91279 3.19726 9.01779C3.08059 9.13446 3.04559 9.29779 3.09226 9.44946L3.55892 11.0828L3.08059 12.7045C3.03392 12.8561 3.08059 13.0195 3.18559 13.1361C3.30226 13.2528 3.46559 13.2878 3.61726 13.2411L5.23892 12.7628L6.86059 13.2411C6.89559 13.2528 6.94226 13.2528 6.98892 13.2528C7.10559 13.2528 7.21059 13.2061 7.30392 13.1245C7.42059 13.0078 7.45559 12.8445 7.40892 12.6928L6.94226 11.0828Z" fill="#2189FF"/>
<path d="M24.4413 16.9166L24.9197 15.2949C24.9663 15.1433 24.9197 14.9799 24.8147 14.8633C24.698 14.7466 24.5347 14.7116 24.383 14.7583L22.7613 15.2366L21.1397 14.7583C20.988 14.7116 20.8247 14.7583 20.708 14.8633C20.5913 14.9799 20.5563 15.1433 20.603 15.2949L21.0813 16.9166L20.603 18.5383C20.5563 18.6899 20.603 18.8533 20.708 18.9699C20.8247 19.0866 20.988 19.1216 21.1397 19.0749L22.7613 18.5966L24.383 19.0749C24.418 19.0866 24.4647 19.0866 24.5113 19.0866C24.628 19.0866 24.733 19.0399 24.8263 18.9583C24.943 18.8416 24.978 18.6783 24.9313 18.5266L24.4413 16.9166Z" fill="#2189FF"/>
</svg>
